<?xml version="1.0" encoding="UTF-8" standalone="no"?>
<!DOCTYPE svg PUBLIC "-//W3C//DTD SVG 1.1//EN" "http://www.w3.org/Graphics/SVG/1.1/DTD/svg11.dtd">
<svg width="100%" height="100%" viewBox="0 0 900 900" version="1.1" xmlns="http://www.w3.org/2000/svg" xmlns:xlink="http://www.w3.org/1999/xlink" xml:space="preserve" xmlns:serif="http://www.serif.com/" style="fill-rule:evenodd;clip-rule:evenodd;stroke-linejoin:round;stroke-miterlimit:2;">
    <g transform="matrix(1,0,0,1,-50,-50)">
        <g id="blue" transform="matrix(14.0625,0,0,14.0625,500,500)">
            <g transform="matrix(1,0,0,1,-32,-32)">
                <g transform="matrix(2.66667,0,0,2.66667,0,0)">
                    <path d="M7.64,2.64L6.22,1.22C4.23,3.21 3,5.96 3,9C3,12.04 4.23,14.79 6.22,16.78L7.63,15.37C6,13.74 5,11.5 5,9C5,6.5 6,4.26 7.64,2.64" style="fill:rgb(0,102,153);fill-rule:nonzero;"/>
                </g>
            </g>
        </g>
        <g id="green" transform="matrix(14.0625,0,0,14.0625,500,500)">
            <g transform="matrix(1,0,0,1,-32,-32)">
                <g transform="matrix(2.66667,0,0,2.66667,0,0)">
                    <path d="M17,20C16.71,20 16.44,19.94 16.24,19.85C15.53,19.5 15.03,18.97 14.53,17.47C14,15.91 13.06,15.18 12.14,14.47C11.35,13.86 10.53,13.23 9.82,11.94C9.29,11 9,9.93 9,9C9,6.2 11.2,4 14,4C16.8,4 19,6.2 19,9L21,9C21,5.07 17.93,2 14,2C10.07,2 7,5.07 7,9C7,10.26 7.38,11.65 8.07,12.9C9,14.55 10.05,15.38 10.92,16.05C11.73,16.67 12.31,17.12 12.63,18.1C13.23,19.92 14,20.94 15.36,21.65C15.87,21.88 16.43,22 17,22C19.194,22 21,20.194 21,18L19,18C19,19.097 18.097,20 17,20" style="fill:rgb(51,153,102);fill-rule:nonzero;"/>
                </g>
            </g>
        </g>
        <g id="red" transform="matrix(14.0625,0,0,14.0625,500,500)">
            <g transform="matrix(1,0,0,1,-32,-32)">
                <g transform="matrix(2.66667,0,0,2.66667,0,0)">
                    <path d="M11.5,9C11.5,10.371 12.629,11.5 14,11.5C15.371,11.5 16.5,10.371 16.5,9C16.5,7.629 15.371,6.5 14,6.5C12.629,6.5 11.5,7.629 11.5,9Z" style="fill:rgb(153,0,0);fill-rule:nonzero;"/>
                </g>
            </g>
        </g>
    </g>
</svg>
